:SAMPLES-PER-SECOND 30
:FULLY-SPECIFIED
:DEGREES
166
root  21.1038 37.1544 18.8789 159.691 74.7386 165.269
RightUpLeg  15.25 -22.8072 -11.253
RightLeg  47.6137 4.80453 5.21838
RightFoot  3.63176 -1.44945 11.4334
RightToes  0.000482159 0.542163 -0.142577
Spine  14.778 7.18614 10.2942
Spine1  15.6344 14.7007 -16.3112
HEad  8.90651 -1.39952 -0.426856
LeftShoulder1  9.21432 -13.9902 -45.9341
LeftArm  -25.4179 31.2307 -21.509
LeftForeArm  9.47203 -66.9896 -27.2004
LeftHand  -0.25398 0.0180481 5.50724
RightShoulder  6.51372 12.7024 34.2306
RightArm  46.9609 33.4517 69.9802
RightForeArm  -22.4245 18.9848 8.7195
RightHand  -0.0366946 -5.14811 0.676715
LeftUpLeg  -24.2195 16.2493 -15.9762
LeftLeg  23.6048 10.573 5.5036
LeftFoot  0.606159 -1.54421 14.7352
LeftToes  1.06248e-005 4.65855e-005 -8.18498e-006
167
root  22.5634 36.902 18.807 156.739 72.9488 162.594
RightUpLeg  6.84995 -21.2587 -11.9523
RightLeg  60.4507 1.88748 2.97441
RightFoot  15.0023 -2.21428 9.92149
RightToes  0.000482159 0.542163 -0.142577
Spine  17.3356 6.67205 8.81511
Spine1  15.3251 14.1999 -16.7437
HEad  8.24039 -1.13782 -1.68085
LeftShoulder1  9.34159 -14.1653 -46.1127
LeftArm  -24.5493 29.5677 -20.9727
LeftForeArm  8.31835 -65.7635 -25.5066
LeftHand  -0.25398 0.0180481 5.50724
RightShoulder  6.36228 12.6136 33.5186
RightArm  45.6019 33.63 69.7532
RightForeArm  -20.6031 18.7435 8.74603
RightHand  -0.0261725 -4.29572 0.608898
LeftUpLeg  -24.2063 14.0463 -16.2581
LeftLeg  29.7384 11.867 7.54917
LeftFoot  -2.74514 -1.13629 15.0975
LeftToes  1.06248e-005 4.65855e-005 -8.18498e-006
168
root  23.968 36.873 18.7759 155.598 71.1968 161.558
RightUpLeg  -2.02868 -19.6003 -11.7615
RightLeg  70.5067 -0.435719 -2.18919
RightFoot  16.8959 -1.48737 6.28892
RightToes  0.000482159 0.542163 -0.142577
Spine  19.4702 6.20491 7.69796
Spine1  15.5669 13.7158 -16.6028
HEad  7.69243 -0.521017 -3.38871
LeftShoulder1  9.45255 -14.2937 -46.3307
LeftArm  -23.5851 27.3361 -21.0841
LeftForeArm  7.95028 -64.8402 -24.3055
LeftHand  -0.25398 0.0180481 5.50724
RightShoulder  6.24444 12.4752 33.1267
RightArm  43.8668 34.4123 68.7572
RightForeArm  -19.1587 18.2929 8.95743
RightHand  -0.0182973 -3.33087 0.385075
LeftUpLeg  -22.7796 13.8495 -16.254
LeftLeg  32.8079 10.6744 7.67819
LeftFoot  -6.58655 -0.49597 12.8704
LeftToes  1.06248e-005 4.65855e-005 -8.18498e-006
169
root  25.4186 37.1078 18.7573 157.167 68.9859 163.13
RightUpLeg  -10.0409 -18.4767 -11.0506
RightLeg  75.6175 -1.23259 -6.60893
RightFoot  13.4921 -0.393017 2.21137
RightToes  0.000482159 0.542163 -0.142577
Spine  20.9442 5.34914 7.22696
Spine1  15.8208 12.7492 -16.0552
HEad  7.46442 0.242613 -4.48009
LeftShoulder1  9.49293 -14.3416 -46.4058
LeftArm  -22.4434 24.9094 -21.5725
LeftForeArm  7.906 -64.0092 -23.2826
LeftHand  -0.25398 0.0180481 5.50724
RightShoulder  6.27559 12.4925 33.2779
RightArm  40.2101 35.4552 67.2772
RightForeArm  -16.7412 16.9647 9.71738
RightHand  -0.0211734 -2.21378 -0.153807
LeftUpLeg  -20.3933 13.137 -15.3951
LeftLeg  33.6027 9.14915 6.84917
LeftFoot  -8.85782 -0.184452 11.0715
LeftToes  1.06248e-005 4.65855e-005 -8.18498e-006
170
root  26.8453 37.4119 18.7494 160.323 66.0265 165.998
RightUpLeg  -16.7882 -17.5246 -10.5239
RightLeg  75.4263 -1.30654 -7.07655
RightFoot  9.68649 -0.134991 1.12753
RightToes  0.000482159 0.542163 -0.142577
Spine  21.9681 4.32786 7.16848
Spine1  15.8625 11.4409 -15.2207
HEad  7.44381 0.0794078 -4.68989
LeftShoulder1  9.53826 -14.3742 -46.546
LeftArm  -20.8046 21.9725 -22.134
LeftForeArm  7.45389 -62.638 -21.7952
LeftHand  -0.25398 0.0180481 5.50724
RightShoulder  6.33527 12.5444 33.5219
RightArm  34.2795 36.1602 65.3152
RightForeArm  -13.0089 15.2199 10.4912
RightHand  -0.0336243 -1.06365 -0.683879
LeftUpLeg  -18.0888 10.79 -14.2151
LeftLeg  33.6855 8.59978 6.48223
LeftFoot  -10.2982 -0.027757 9.78398
LeftToes  1.06248e-005 4.65855e-005 -8.18498e-006
171
root  28.2569 37.6835 18.7509 163.649 62.9484 168.947
RightUpLeg  -22.3289 -16.3956 -10.3354
RightLeg  71.4227 -1.46741 -5.80242
RightFoot  7.17841 -0.25536 1.86323
RightToes  0.000482159 0.542163 -0.142577
Spine  22.9133 3.56984 7.58414
Spine1  15.6482 10.3783 -14.2103
HEad  7.41511 -1.02323 -4.98908
LeftShoulder1  9.67702 -14.4978 -46.9073
LeftArm  -18.9316 18.5924 -22.8055
LeftForeArm  6.65407 -60.7604 -20.0197
LeftHand  -0.25398 0.0180481 5.50724
RightShoulder  6.27358 12.445 33.3817
RightArm  28.3136 36.3913 62.9458
RightForeArm  -9.56108 14.0724 10.6696
RightHand  -0.0324942 -0.122715 -0.683713
LeftUpLeg  -15.8863 7.66301 -12.7346
LeftLeg  33.5814 8.37893 6.30357
LeftFoot  -12.1056 0.124461 7.93562
LeftToes  1.06248e-005 4.65855e-005 -8.18498e-006
172
root  29.6815 37.9139 18.7552 166.43 60.1042 171.616
RightUpLeg  -26.3036 -15.5669 -10.3559
RightLeg  64.6037 -2.47999 -6.22937
RightFoot  4.62618 -0.190514 1.55951
RightToes  0.000482159 0.542163 -0.142577
Spine  24.1026 2.99681 8.44103
Spine1  15.259 9.65372 -13.2606
HEad  7.48412 -1.91865 -5.96149
LeftShoulder1  9.86185 -14.7336 -47.1923
LeftArm  -17.2541 15.4529 -23.745
LeftForeArm  6.04512 -59.0067 -18.5624
LeftHand  -0.25398 0.0180481 5.50724
RightShoulder  6.11185 12.2543 32.8343
RightArm  23.9465 36.5721 60.5019
RightForeArm  -7.12669 13.5251 10.5415
RightHand  0.00424923 0.436963 0.0487313
LeftUpLeg  -13.6484 4.48375 -10.9424
LeftLeg  33.5236 7.89379 5.94974
LeftFoot  -13.9267 0.218329 5.90728
LeftToes  1.06248e-005 4.65855e-005 -8.18498e-006
